<svg id="a" width="306" height="50" version="1.1" viewBox="0 0 306 50" xml:space="preserve" xmlns="http://www.w3.org/2000/svg"><g id="b" transform="matrix(1.3333 0 0 -1.3333 -125.91 181.38)"><g id="c" transform="matrix(.98039 0 0 .98039 -97.045 -41.45)"><path id="d" d="m206.5 181.03v-11.187h-11.187v-15.877h11.187v-11.186h15.876v11.186h11.187v15.877h-11.187v11.187z" fill="#6fc"/><path id="e" d="m233.56 152.78-9.9992-10-9.1258 9.1263-9.1257-9.1263-9.9992 10 9.1257 9.1263-9.1233 9.124 9.9992 10 9.1233-9.124 9.1234 9.124 9.9992-10-9.1234-9.124z" fill="#903"/><path id="f" d="m206.5 179.85v-10.002h-9.9976l7.9365-7.9365-7.9409-7.9409h10.002v-9.9976l7.938 7.938 7.938-7.938v9.9976h10.002l-7.9409 7.9409 7.9365 7.9365h-9.9976v10.002l-7.938-7.9394z"/><path id="g" d="m206.5 161.91c0 4.3845 3.5542 7.9387 7.9387 7.9387s7.9387-3.5542 7.9387-7.9387c0-4.3845-3.5542-7.9387-7.9387-7.9387s-7.9387 3.5542-7.9387 7.9387z" fill="#fff"/></g><g fill="#3e3c5f"><path id="h" d="m241.9 136.03h15.566v-37.5h-15.566z"/><path id="i" d="m230.94 109.5v15.566h37.5v-15.566z"/><path id="j" d="m176.94 120.47h15.566v-21.934h-15.566z"/><path id="k" d="m176.94 128.25c0 4.2985 3.4845 7.783 7.783 7.783 4.2985 0 7.783-3.4845 7.783-7.783 0-4.2985-3.4845-7.783-7.783-7.783-4.2985 0-7.783 3.4845-7.783 7.783z"/><path id="l" d="m156.64 120.47-18.7 15.566v-37.5h37.5v37.5z"/><path id="m" d="m230.56 108.34-9.8031-9.8039-8.9468 8.9473-8.9467-8.9473-9.8031 9.8039 8.9467 8.9473-8.9444 8.945 9.8031 9.8038 8.9444-8.945 8.9444 8.945 9.8031-9.8038-8.9444-8.945z"/><path id="n" d="m305.24 120.47 18.7 15.566v-37.5h-37.5v37.5z"/><path id="o" d="m284.94 128.25c0 4.2985-3.4845 7.783-7.783 7.783-4.2985 0-7.783-3.4845-7.783-7.783 0-4.2985 3.4845-7.783 7.783-7.783 4.2985 0 7.783 3.4845 7.783 7.783zm-2e-3 -7.783h-15.566v-21.934h15.566z"/></g></g></svg>
