<svg id="b" width="313" height="51" version="1.1" viewBox="0 0 313 51" xml:space="preserve" xmlns="http://www.w3.org/2000/svg" xmlns:xlink="http://www.w3.org/1999/xlink"><defs id="c"><radialGradient id="a" cx="114.28" cy="116.91" r="7.7953" gradientUnits="userSpaceOnUse"><stop id="d" stop-color="#fff" offset="0"/><stop id="e" stop-color="#fff" stop-opacity=".6" offset=".5"/><stop id="f" stop-color="#fff" stop-opacity="0" offset="1"/></radialGradient></defs><g id="g" transform="matrix(1.3333 0 0 -1.3333 -125.91 181.38)"><g fill="#6fc"><g><path id="h" transform="matrix(.75 0 0 -.75 94.435 136.03)" d="m202.5 0.25586v14.645h-15.988v20.787h15.988v14.646h20.787v-14.646h16.137v-20.787h-16.137v-14.645z"/><path id="i" d="m274.74 120.25h15.591v-21.969h-15.591z"/><path id="j" d="m179.61 120.25h15.591v-21.969h-15.591z"/><path id="k" d="m179.6 128.05c0 4.3053 3.49 7.7953 7.7953 7.7953s7.7953-3.49 7.7953-7.7953-3.49-7.7953-7.7953-7.7953-7.7953 3.49-7.7953 7.7953z"/><path id="l" d="m159.5 120.25-18.745 15.591v-37.559h37.591v37.559z"/><path id="m" d="m274.74 128.05c0 4.3053 3.49 7.7953 7.7953 7.7953 4.3052 0 7.7953-3.49 7.7953-7.7953s-3.4901-7.7953-7.7953-7.7953c-4.3053 0-7.7953 3.49-7.7953 7.7953z"/><path id="n" d="m310.44 120.25 18.745 15.591v-37.559h-37.591v37.559z"/><path id="o" d="m233.96 107.78-10-10-9.1265 9.1263-9.1264-9.1263-10 10 9.1264 9.1263-9.124 9.124 10 10 9.124-9.124 9.1241 9.124 10-10-9.1241-9.124z"/></g><path id="p" d="m96.482 124.71 7.7959-7.7944-7.7988-7.7974h9.9478v-10.053l7.8501 7.8501 7.7402-7.7388v9.9419h10.058l-7.7974 7.7974 7.7959 7.7944-10.056-1e-3v9.9463l-7.7388-7.7402-7.8516 7.8516v-10.058z"/></g><path id="q" d="m133.4 107.78-10-10-9.1266 9.1263-9.1264-9.1263-10 10 9.1264 9.1263-9.1239 9.124 10 10 9.1241-9.124 9.124 9.124 10-10-9.124-9.124zm-26.978 27.905h15.591v-10.984l12.103 1e-4v-15.591h-12.103v-10.984h-15.591l-1e-4 10.984h-11.991v15.591l11.991-1e-4z" fill="#903" fill-rule="evenodd"/><path id="r" d="m106.48 116.91c0 4.3053 3.49 7.7953 7.7953 7.7953s7.7953-3.49 7.7953-7.7953-3.49-7.7953-7.7953-7.7953-7.7953 3.49-7.7953 7.7953z" fill="url(#a)"/></g></svg>
